<?xml version="1.0" encoding="UTF-8" standalone="no"?>
<!DOCTYPE svg PUBLIC "-//W3C//DTD SVG 1.1//EN" "http://www.w3.org/Graphics/SVG/1.1/DTD/svg11.dtd">
<!-- Generated by Microsoft Visio, SVG Export microservice.svg Page-1 -->
<svg xmlns="http://www.w3.org/2000/svg" xmlns:xlink="http://www.w3.org/1999/xlink" xmlns:ev="http://www.w3.org/2001/xml-events"
		xmlns:v="http://schemas.microsoft.com/visio/2003/SVGExtensions/" width="14.273in" height="13.366in"
		viewBox="0 0 1027.66 962.351" xml:space="preserve" color-interpolation-filters="sRGB" class="st14">
	<v:documentProperties v:langID="1033" v:metric="true" v:viewMarkup="false">
		<v:userDefs>
			<v:ud v:nameU="msvSubprocessMaster" v:prompt="" v:val="VT4(Procedure)"/>
			<v:ud v:nameU="msvNoAutoConnect" v:val="VT0(0):26"/>
			<v:ud v:nameU="DisableSpdActionTags" v:prompt="" v:val="VT0(0):26"/>
		</v:userDefs>
	</v:documentProperties>

	<style type="text/css">
	<![CDATA[
		.st1 {fill:#00c8c8;stroke:#ffffff;stroke-linecap:round;stroke-linejoin:round;stroke-width:0.5}
		.st2 {fill:#1ba1e2}
		.st3 {stroke:#ffffff;stroke-linecap:round;stroke-linejoin:round;stroke-width:0.5}
		.st4 {fill:none;stroke:none;stroke-linecap:round;stroke-linejoin:round;stroke-width:0.5}
		.st5 {fill:#ffffff;font-family:Segoe UI;font-size:1.99999em;font-weight:bold}
		.st6 {fill:#d9e9e9;stroke:#ffffff;stroke-linecap:round;stroke-linejoin:round;stroke-width:0.5}
		.st7 {fill:#000000;font-family:Segoe UI;font-size:1.5em}
		.st8 {fill:#dbe6db;stroke:#ffffff;stroke-linecap:round;stroke-linejoin:round;stroke-width:0.5}
		.st9 {fill:#339933;font-family:Segoe UI;font-size:1.5em}
		.st10 {marker-end:url(#mrkr13-33);stroke:#1998d6;stroke-linecap:round;stroke-linejoin:round;stroke-width:3}
		.st11 {fill:#1998d6;fill-opacity:1;stroke:#1998d6;stroke-opacity:1;stroke-width:0.54347826086957}
		.st12 {font-size:1em}
		.st13 {fill:#75c6ee;stroke:#ffffff;stroke-linecap:round;stroke-linejoin:round;stroke-width:0.5}
		.st14 {fill:none;fill-rule:evenodd;font-size:12px;overflow:visible;stroke-linecap:square;stroke-miterlimit:3}
	]]>
	</style>

	<defs id="Markers">
		<g id="lend13">
			<path d="M 3 1 L 0 0 L 3 -1 L 3 1 " style="stroke:none"/>
		</g>
		<marker id="mrkr13-33" class="st11" v:arrowType="13" v:arrowSize="2" v:setback="5.52" refX="-5.52" orient="auto"
				markerUnits="strokeWidth" overflow="visible">
			<use xlink:href="#lend13" transform="scale(-1.84,-1.84) "/>
		</marker>
	</defs>
	<g v:mID="0" v:index="1" v:groupContext="foregroundPage">
		<v:userDefs>
			<v:ud v:nameU="msvThemeOrder" v:val="VT0(0):26"/>
		</v:userDefs>
		<title>Page-1</title>
		<v:pageProperties v:drawingScale="0.0393701" v:pageScale="0.0393701" v:drawingUnits="24" v:shadowOffsetX="8.50394"
				v:shadowOffsetY="-8.50394"/>
		<v:layer v:name="Flowchart" v:index="0"/>
		<v:layer v:name="Connector" v:index="1"/>
		<v:layer v:name="Container" v:index="2"/>
		<v:layer v:name="Web Site Map Shapes" v:index="3"/>
		<g id="shape35-1" v:mID="35" v:groupContext="shape" transform="translate(272.723,-568.313)">
			<title>Round Corner Rectangle</title>
			<v:userDefs>
				<v:ud v:nameU="CTypeTopLeftSnip" v:prompt="" v:val="VT0(0):5"/>
				<v:ud v:nameU="CTypeTopRightSnip" v:prompt="" v:val="VT0(0):5"/>
				<v:ud v:nameU="CTypeBotLeftSnip" v:prompt="" v:val="VT0(0):5"/>
				<v:ud v:nameU="CTypeBotRightSnip" v:prompt="" v:val="VT0(0):5"/>
				<v:ud v:nameU="CornerLockHoriz" v:prompt="" v:val="VT0(0):5"/>
				<v:ud v:nameU="CornerLockVert" v:prompt="" v:val="VT0(0):5"/>
				<v:ud v:nameU="CornerLockDiag" v:prompt="" v:val="VT0(0):5"/>
				<v:ud v:nameU="TopLeftOffset" v:prompt="" v:val="VT0(0.15748031496063):24"/>
				<v:ud v:nameU="TopRightOffset" v:prompt="" v:val="VT0(0.15748031496063):24"/>
				<v:ud v:nameU="BotLeftOffset" v:prompt="" v:val="VT0(0.15748031496063):24"/>
				<v:ud v:nameU="BotRightOffset" v:prompt="" v:val="VT0(0.15748031496063):24"/>
				<v:ud v:nameU="visVersion" v:prompt="" v:val="VT0(15):26"/>
				<v:ud v:nameU="TopLeftOffset" v:prompt="" v:val="VT0(0.59010280923409):1"/>
				<v:ud v:nameU="TopRightOffset" v:prompt="" v:val="VT0(0.59010280923409):1"/>
				<v:ud v:nameU="BotLeftOffset" v:prompt="" v:val="VT0(0.59010280923409):1"/>
				<v:ud v:nameU="BotRightOffset" v:prompt="" v:val="VT0(0.59010280923409):1"/>
			</v:userDefs>
			<path d="M42.49 962.35 L382.39 962.35 A42.4867 42.4867 -180 0 0 424.87 919.86 L424.87 707.2 A42.4867 42.4867 -180 0 0
						 382.39 664.71 L42.49 664.71 A42.4867 42.4867 -180 0 0 0 707.2 L0 919.86 A42.4867 42.4867 -180 0 0 42.49
						 962.35 Z" class="st1"/>
		</g>
		<g id="group36-3" transform="translate(642.516,-18.25)" v:mID="36" v:groupContext="group">
			<title>Sheet.36</title>
			<g id="shape5-4" v:mID="5" v:groupContext="shape" v:layerMember="0" transform="translate(67.4525,1.13687E-13)">
				<title>Database.4</title>
				<v:custProps>
					<v:cp v:nameU="Cost" v:lbl="Cost" v:type="7" v:format="@" v:langID="1033"/>
					<v:cp v:nameU="Duration" v:lbl="Duration" v:type="2" v:langID="1033"/>
					<v:cp v:nameU="Resources" v:lbl="Resources" v:langID="1033"/>
				</v:custProps>
				<v:userDefs>
					<v:ud v:nameU="visVersion" v:val="VT0(15):26"/>
				</v:userDefs>
				<path d="M0 866.83 L0 941.09 A106.305 21.261 -180 1 0 212.61 941.09 L212.61 866.83 A106.305 21.261 -180 0 0 -0 866.83
							 Z" class="st2"/>
				<path d="M0 866.83 L0 941.09 A106.305 21.261 -180 1 0 212.61 941.09 L212.61 866.83 A106.305 21.261 -180 0 0 -0 866.83"
						class="st3"/>
				<path d="M0 866.83 A106.305 21.261 -180 0 0 212.61 866.83" class="st3"/>
				<path d="M0 877.46 A106.305 21.261 -180 0 0 212.61 877.46" class="st3"/>
				<path d="M0 888.09 A106.305 21.261 -180 1 0 212.61 888.09" class="st3"/>
			</g>
			<g id="shape6-10" v:mID="6" v:groupContext="shape" transform="translate(72.8488,-91.4512)">
				<title>Sheet.6</title>
				<desc>H2 Database</desc>
				<v:textBlock v:margins="rect(2,2,2,2)" v:tabSpace="42.5197"/>
				<v:textRect cx="103.607" cy="958.471" width="207.22" height="7.76138"/>
				<rect x="0" y="954.59" width="207.214" height="7.76138" class="st4"/>
				<text x="32.1" y="965.67" class="st5" v:langID="2055"><v:paragraph v:horizAlign="1"/><v:tabList/>H2 Database</text>			</g>
			<g id="shape29-13" v:mID="29" v:groupContext="shape" transform="translate(141.732,-14.1732)">
				<title>Rectangle.29</title>
				<desc>Pet</desc>
				<v:userDefs>
					<v:ud v:nameU="visVersion" v:val="VT0(15):26"/>
				</v:userDefs>
				<v:textBlock v:margins="rect(4,4,4,4)" v:tabSpace="42.5197"/>
				<v:textRect cx="38.8527" cy="948.601" width="77.71" height="27.501"/>
				<rect x="0" y="934.851" width="77.7053" height="27.501" class="st6"/>
				<text x="26.06" y="954" class="st7" v:langID="2055"><v:paragraph v:horizAlign="1"/><v:tabList/>Pet</text>			</g>
		</g>
		<g id="shape40-16" v:mID="40" v:groupContext="shape" transform="translate(-630.101,394.039) rotate(-90)">
			<title>Sheet.40</title>
			<desc>Orchestrator</desc>
			<v:textBlock v:margins="rect(2,2,2,2)" v:tabSpace="42.5197"/>
			<v:textRect cx="148.819" cy="947.426" width="297.64" height="29.8504"/>
			<rect x="0" y="932.501" width="297.638" height="29.8504" class="st4"/>
			<text x="77.5" y="954.63" class="st5" v:langID="2055"><v:paragraph v:horizAlign="1"/><v:tabList/>Orchestrator</text>		</g>
		<g id="shape1000-19" v:mID="1000" v:groupContext="shape" transform="translate(353.188,-773.825)">
			<title>Round Corner Rectangle.1000</title>
			<desc>Rest Controller</desc>
			<v:userDefs>
				<v:ud v:nameU="CTypeTopLeftSnip" v:prompt="" v:val="VT0(0):5"/>
				<v:ud v:nameU="CTypeTopRightSnip" v:prompt="" v:val="VT0(0):5"/>
				<v:ud v:nameU="CTypeBotLeftSnip" v:prompt="" v:val="VT0(0):5"/>
				<v:ud v:nameU="CTypeBotRightSnip" v:prompt="" v:val="VT0(0):5"/>
				<v:ud v:nameU="CornerLockHoriz" v:prompt="" v:val="VT0(0):5"/>
				<v:ud v:nameU="CornerLockVert" v:prompt="" v:val="VT0(0):5"/>
				<v:ud v:nameU="CornerLockDiag" v:prompt="" v:val="VT0(0):5"/>
				<v:ud v:nameU="TopLeftOffset" v:prompt="" v:val="VT0(0.15748031496063):24"/>
				<v:ud v:nameU="TopRightOffset" v:prompt="" v:val="VT0(0.15748031496063):24"/>
				<v:ud v:nameU="BotLeftOffset" v:prompt="" v:val="VT0(0.15748031496063):24"/>
				<v:ud v:nameU="BotRightOffset" v:prompt="" v:val="VT0(0.15748031496063):24"/>
				<v:ud v:nameU="visVersion" v:prompt="" v:val="VT0(15):26"/>
				<v:ud v:nameU="TopLeftOffset" v:prompt="" v:val="VT0(0.40866140428069):1"/>
				<v:ud v:nameU="TopRightOffset" v:prompt="" v:val="VT0(0.40866140428069):1"/>
				<v:ud v:nameU="BotLeftOffset" v:prompt="" v:val="VT0(0.40866140428069):1"/>
				<v:ud v:nameU="BotRightOffset" v:prompt="" v:val="VT0(0.40866140428069):1"/>
			</v:userDefs>
			<v:textBlock v:margins="rect(4,4,4,4)" v:tabSpace="42.5197"/>
			<v:textRect cx="147.118" cy="926.918" width="294.24" height="70.8661"/>
			<path d="M29.42 962.35 L264.81 962.35 A29.4231 29.4231 -180 0 0 294.24 932.93 L294.24 920.91 A29.4231 29.4231 -180 0
						 0 264.81 891.49 L29.42 891.49 A29.4231 29.4231 -180 0 0 0 920.91 L0 932.93 A29.4231 29.4231 -180 0 0 29.42
						 962.35 Z" class="st8"/>
			<text x="88.11" y="932.32" class="st9" v:langID="2055"><v:paragraph v:horizAlign="1"/><v:tabList/>Rest Controller</text>		</g>
		<g id="shape1001-22" v:mID="1001" v:groupContext="shape" transform="translate(353.188,-681.699)">
			<title>Round Corner Rectangle.1001</title>
			<desc>Orchestrator Service</desc>
			<v:userDefs>
				<v:ud v:nameU="CTypeTopLeftSnip" v:prompt="" v:val="VT0(0):5"/>
				<v:ud v:nameU="CTypeTopRightSnip" v:prompt="" v:val="VT0(0):5"/>
				<v:ud v:nameU="CTypeBotLeftSnip" v:prompt="" v:val="VT0(0):5"/>
				<v:ud v:nameU="CTypeBotRightSnip" v:prompt="" v:val="VT0(0):5"/>
				<v:ud v:nameU="CornerLockHoriz" v:prompt="" v:val="VT0(0):5"/>
				<v:ud v:nameU="CornerLockVert" v:prompt="" v:val="VT0(0):5"/>
				<v:ud v:nameU="CornerLockDiag" v:prompt="" v:val="VT0(0):5"/>
				<v:ud v:nameU="TopLeftOffset" v:prompt="" v:val="VT0(0.15748031496063):24"/>
				<v:ud v:nameU="TopRightOffset" v:prompt="" v:val="VT0(0.15748031496063):24"/>
				<v:ud v:nameU="BotLeftOffset" v:prompt="" v:val="VT0(0.15748031496063):24"/>
				<v:ud v:nameU="BotRightOffset" v:prompt="" v:val="VT0(0.15748031496063):24"/>
				<v:ud v:nameU="visVersion" v:prompt="" v:val="VT0(15):26"/>
				<v:ud v:nameU="TopLeftOffset" v:prompt="" v:val="VT0(0.40866140428069):1"/>
				<v:ud v:nameU="TopRightOffset" v:prompt="" v:val="VT0(0.40866140428069):1"/>
				<v:ud v:nameU="BotLeftOffset" v:prompt="" v:val="VT0(0.40866140428069):1"/>
				<v:ud v:nameU="BotRightOffset" v:prompt="" v:val="VT0(0.40866140428069):1"/>
			</v:userDefs>
			<v:textBlock v:margins="rect(4,4,4,4)" v:tabSpace="42.5197"/>
			<v:textRect cx="147.118" cy="926.918" width="294.24" height="70.8661"/>
			<path d="M29.42 962.35 L264.81 962.35 A29.4231 29.4231 -180 0 0 294.24 932.93 L294.24 920.91 A29.4231 29.4231 -180 0
						 0 264.81 891.49 L29.42 891.49 A29.4231 29.4231 -180 0 0 0 920.91 L0 932.93 A29.4231 29.4231 -180 0 0 29.42
						 962.35 Z" class="st8"/>
			<text x="66.78" y="932.32" class="st9" v:langID="2055"><v:paragraph v:horizAlign="1"/><v:tabList/>Orchestrator Service</text>		</g>
		<g id="shape1002-25" v:mID="1002" v:groupContext="shape" transform="translate(353.188,-589.573)">
			<title>Round Corner Rectangle.1002</title>
			<desc>User Service</desc>
			<v:userDefs>
				<v:ud v:nameU="CTypeTopLeftSnip" v:prompt="" v:val="VT0(0):5"/>
				<v:ud v:nameU="CTypeTopRightSnip" v:prompt="" v:val="VT0(0):5"/>
				<v:ud v:nameU="CTypeBotLeftSnip" v:prompt="" v:val="VT0(0):5"/>
				<v:ud v:nameU="CTypeBotRightSnip" v:prompt="" v:val="VT0(0):5"/>
				<v:ud v:nameU="CornerLockHoriz" v:prompt="" v:val="VT0(0):5"/>
				<v:ud v:nameU="CornerLockVert" v:prompt="" v:val="VT0(0):5"/>
				<v:ud v:nameU="CornerLockDiag" v:prompt="" v:val="VT0(0):5"/>
				<v:ud v:nameU="TopLeftOffset" v:prompt="" v:val="VT0(0.15748031496063):24"/>
				<v:ud v:nameU="TopRightOffset" v:prompt="" v:val="VT0(0.15748031496063):24"/>
				<v:ud v:nameU="BotLeftOffset" v:prompt="" v:val="VT0(0.15748031496063):24"/>
				<v:ud v:nameU="BotRightOffset" v:prompt="" v:val="VT0(0.15748031496063):24"/>
				<v:ud v:nameU="visVersion" v:prompt="" v:val="VT0(15):26"/>
				<v:ud v:nameU="TopLeftOffset" v:prompt="" v:val="VT0(0.18329509218678):1"/>
				<v:ud v:nameU="TopRightOffset" v:prompt="" v:val="VT0(0.18329509218678):1"/>
				<v:ud v:nameU="BotLeftOffset" v:prompt="" v:val="VT0(0.18329509218678):1"/>
				<v:ud v:nameU="BotRightOffset" v:prompt="" v:val="VT0(0.18329509218678):1"/>
			</v:userDefs>
			<v:textBlock v:margins="rect(4,4,4,4)" v:tabSpace="42.5197"/>
			<v:textRect cx="65.9862" cy="926.918" width="131.98" height="70.8661"/>
			<path d="M13.2 962.35 L118.78 962.35 A13.197 13.197 -180 0 0 131.97 949.15 L131.97 904.68 A13.197 13.197 -180 0 0 118.78
						 891.49 L13.2 891.49 A13.197 13.197 -180 0 0 0 904.68 L0 949.15 A13.197 13.197 -180 0 0 13.2 962.35 Z"
					class="st8"/>
			<text x="17.71" y="932.32" class="st9" v:langID="2055"><v:paragraph v:horizAlign="1"/><v:tabList/>User Service</text>		</g>
		<g id="shape1005-28" v:mID="1005" v:groupContext="shape" transform="translate(-522.228,307.39) rotate(-89.9626)">
			<title>Sheet.1005</title>
			<path d="M0 962.35 L14.55 962.35" class="st10"/>
		</g>
		<g id="shape1006-34" v:mID="1006" v:groupContext="shape" transform="translate(1358.56,276.909) rotate(90)">
			<title>Sheet.1006</title>
			<path d="M0 962.35 L14.25 962.35" class="st10"/>
		</g>
		<g id="shape1007-39" v:mID="1007" v:groupContext="shape" transform="translate(-439.105,214.756) rotate(-89.9626)">
			<title>Sheet.1007</title>
			<path d="M0 962.35 L14.55 962.35" class="st10"/>
		</g>
		<g id="shape1008-44" v:mID="1008" v:groupContext="shape" transform="translate(1441.68,184.925) rotate(90)">
			<title>Sheet.1008</title>
			<path d="M0 962.35 L14.25 962.35" class="st10"/>
		</g>
		<g id="shape1009-49" v:mID="1009" v:groupContext="shape" transform="translate(-439.814,126.609) rotate(-89.9873)">
			<title>Sheet.1009</title>
			<path d="M0 962.35 L74.81 962.35" class="st10"/>
		</g>
		<g id="shape1010-54" v:mID="1010" v:groupContext="shape" transform="translate(1440.97,37.365) rotate(90)">
			<title>Sheet.1010</title>
			<path d="M0 962.35 L73.94 962.35" class="st10"/>
		</g>
		<g id="shape1011-59" v:mID="1011" v:groupContext="shape" transform="translate(374.054,-888.297)">
			<title>Sheet.1011</title>
			<desc>HTTP request</desc>
			<v:textBlock v:margins="rect(2,2,2,2)" v:tabSpace="42.5197"/>
			<v:textRect cx="50" cy="956.351" width="100" height="12"/>
			<rect x="0" y="950.351" width="100" height="12" class="st4"/>
			<text x="29.14" y="950.95" class="st7" v:langID="2055"><v:paragraph v:horizAlign="1"/><v:tabList/>HTTP <tspan x="20.2"
						dy="1.2em" class="st12">request</tspan></text>		</g>
		<g id="shape1012-63" v:mID="1012" v:groupContext="shape" transform="translate(526.101,-888.297)">
			<title>Sheet.1012</title>
			<desc>HTTP response</desc>
			<v:textBlock v:margins="rect(2,2,2,2)" v:tabSpace="42.5197"/>
			<v:textRect cx="50" cy="956.351" width="100" height="12"/>
			<rect x="0" y="950.351" width="100" height="12" class="st4"/>
			<text x="29.14" y="950.95" class="st7" v:langID="2055"><v:paragraph v:horizAlign="1"/><v:tabList/>HTTP <tspan x="14.16"
						dy="1.2em" class="st12">response</tspan></text>		</g>
		<g id="shape1013-67" v:mID="1013" v:groupContext="shape" transform="translate(584.534,-170.47)">
			<title>Round Corner Rectangle.1013</title>
			<v:userDefs>
				<v:ud v:nameU="CTypeTopLeftSnip" v:prompt="" v:val="VT0(0):5"/>
				<v:ud v:nameU="CTypeTopRightSnip" v:prompt="" v:val="VT0(0):5"/>
				<v:ud v:nameU="CTypeBotLeftSnip" v:prompt="" v:val="VT0(0):5"/>
				<v:ud v:nameU="CTypeBotRightSnip" v:prompt="" v:val="VT0(0):5"/>
				<v:ud v:nameU="CornerLockHoriz" v:prompt="" v:val="VT0(0):5"/>
				<v:ud v:nameU="CornerLockVert" v:prompt="" v:val="VT0(0):5"/>
				<v:ud v:nameU="CornerLockDiag" v:prompt="" v:val="VT0(0):5"/>
				<v:ud v:nameU="TopLeftOffset" v:prompt="" v:val="VT0(0.15748031496063):24"/>
				<v:ud v:nameU="TopRightOffset" v:prompt="" v:val="VT0(0.15748031496063):24"/>
				<v:ud v:nameU="BotLeftOffset" v:prompt="" v:val="VT0(0.15748031496063):24"/>
				<v:ud v:nameU="BotRightOffset" v:prompt="" v:val="VT0(0.15748031496063):24"/>
				<v:ud v:nameU="visVersion" v:prompt="" v:val="VT0(15):26"/>
				<v:ud v:nameU="TopLeftOffset" v:prompt="" v:val="VT0(0.59010280923409):1"/>
				<v:ud v:nameU="TopRightOffset" v:prompt="" v:val="VT0(0.59010280923409):1"/>
				<v:ud v:nameU="BotLeftOffset" v:prompt="" v:val="VT0(0.59010280923409):1"/>
				<v:ud v:nameU="BotRightOffset" v:prompt="" v:val="VT0(0.59010280923409):1"/>
			</v:userDefs>
			<path d="M42.49 962.35 L382.39 962.35 A42.4867 42.4867 -180 0 0 424.87 919.86 L424.87 707.2 A42.4867 42.4867 -180 0 0
						 382.39 664.71 L42.49 664.71 A42.4867 42.4867 -180 0 0 0 707.2 L0 919.86 A42.4867 42.4867 -180 0 0 42.49
						 962.35 Z" class="st13"/>
		</g>
		<g id="shape1014-69" v:mID="1014" v:groupContext="shape" transform="translate(-318.29,791.881) rotate(-90)">
			<title>Sheet.1014</title>
			<desc>Pet</desc>
			<v:textBlock v:margins="rect(2,2,2,2)" v:tabSpace="42.5197"/>
			<v:textRect cx="148.819" cy="947.426" width="297.64" height="29.8504"/>
			<rect x="0" y="932.501" width="297.638" height="29.8504" class="st4"/>
			<text x="130.29" y="954.63" class="st5" v:langID="2055"><v:paragraph v:horizAlign="1"/><v:tabList/>Pet</text>		</g>
		<g id="shape1015-72" v:mID="1015" v:groupContext="shape" transform="translate(664.999,-375.982)">
			<title>Round Corner Rectangle.1015</title>
			<desc>Rest Controller</desc>
			<v:userDefs>
				<v:ud v:nameU="CTypeTopLeftSnip" v:prompt="" v:val="VT0(0):5"/>
				<v:ud v:nameU="CTypeTopRightSnip" v:prompt="" v:val="VT0(0):5"/>
				<v:ud v:nameU="CTypeBotLeftSnip" v:prompt="" v:val="VT0(0):5"/>
				<v:ud v:nameU="CTypeBotRightSnip" v:prompt="" v:val="VT0(0):5"/>
				<v:ud v:nameU="CornerLockHoriz" v:prompt="" v:val="VT0(0):5"/>
				<v:ud v:nameU="CornerLockVert" v:prompt="" v:val="VT0(0):5"/>
				<v:ud v:nameU="CornerLockDiag" v:prompt="" v:val="VT0(0):5"/>
				<v:ud v:nameU="TopLeftOffset" v:prompt="" v:val="VT0(0.15748031496063):24"/>
				<v:ud v:nameU="TopRightOffset" v:prompt="" v:val="VT0(0.15748031496063):24"/>
				<v:ud v:nameU="BotLeftOffset" v:prompt="" v:val="VT0(0.15748031496063):24"/>
				<v:ud v:nameU="BotRightOffset" v:prompt="" v:val="VT0(0.15748031496063):24"/>
				<v:ud v:nameU="visVersion" v:prompt="" v:val="VT0(15):26"/>
				<v:ud v:nameU="TopLeftOffset" v:prompt="" v:val="VT0(0.40866140428069):1"/>
				<v:ud v:nameU="TopRightOffset" v:prompt="" v:val="VT0(0.40866140428069):1"/>
				<v:ud v:nameU="BotLeftOffset" v:prompt="" v:val="VT0(0.40866140428069):1"/>
				<v:ud v:nameU="BotRightOffset" v:prompt="" v:val="VT0(0.40866140428069):1"/>
			</v:userDefs>
			<v:textBlock v:margins="rect(4,4,4,4)" v:tabSpace="42.5197"/>
			<v:textRect cx="147.118" cy="926.918" width="294.24" height="70.8661"/>
			<path d="M29.42 962.35 L264.81 962.35 A29.4231 29.4231 -180 0 0 294.24 932.93 L294.24 920.91 A29.4231 29.4231 -180 0
						 0 264.81 891.49 L29.42 891.49 A29.4231 29.4231 -180 0 0 0 920.91 L0 932.93 A29.4231 29.4231 -180 0 0 29.42
						 962.35 Z" class="st8"/>
			<text x="88.11" y="932.32" class="st9" v:langID="2055"><v:paragraph v:horizAlign="1"/><v:tabList/>Rest Controller</text>		</g>
		<g id="shape1016-75" v:mID="1016" v:groupContext="shape" transform="translate(664.999,-283.856)">
			<title>Round Corner Rectangle.1016</title>
			<desc>Service</desc>
			<v:userDefs>
				<v:ud v:nameU="CTypeTopLeftSnip" v:prompt="" v:val="VT0(0):5"/>
				<v:ud v:nameU="CTypeTopRightSnip" v:prompt="" v:val="VT0(0):5"/>
				<v:ud v:nameU="CTypeBotLeftSnip" v:prompt="" v:val="VT0(0):5"/>
				<v:ud v:nameU="CTypeBotRightSnip" v:prompt="" v:val="VT0(0):5"/>
				<v:ud v:nameU="CornerLockHoriz" v:prompt="" v:val="VT0(0):5"/>
				<v:ud v:nameU="CornerLockVert" v:prompt="" v:val="VT0(0):5"/>
				<v:ud v:nameU="CornerLockDiag" v:prompt="" v:val="VT0(0):5"/>
				<v:ud v:nameU="TopLeftOffset" v:prompt="" v:val="VT0(0.15748031496063):24"/>
				<v:ud v:nameU="TopRightOffset" v:prompt="" v:val="VT0(0.15748031496063):24"/>
				<v:ud v:nameU="BotLeftOffset" v:prompt="" v:val="VT0(0.15748031496063):24"/>
				<v:ud v:nameU="BotRightOffset" v:prompt="" v:val="VT0(0.15748031496063):24"/>
				<v:ud v:nameU="visVersion" v:prompt="" v:val="VT0(15):26"/>
				<v:ud v:nameU="TopLeftOffset" v:prompt="" v:val="VT0(0.40866140428069):1"/>
				<v:ud v:nameU="TopRightOffset" v:prompt="" v:val="VT0(0.40866140428069):1"/>
				<v:ud v:nameU="BotLeftOffset" v:prompt="" v:val="VT0(0.40866140428069):1"/>
				<v:ud v:nameU="BotRightOffset" v:prompt="" v:val="VT0(0.40866140428069):1"/>
			</v:userDefs>
			<v:textBlock v:margins="rect(4,4,4,4)" v:tabSpace="42.5197"/>
			<v:textRect cx="147.118" cy="926.918" width="294.24" height="70.8661"/>
			<path d="M29.42 962.35 L264.81 962.35 A29.4231 29.4231 -180 0 0 294.24 932.93 L294.24 920.91 A29.4231 29.4231 -180 0
						 0 264.81 891.49 L29.42 891.49 A29.4231 29.4231 -180 0 0 0 920.91 L0 932.93 A29.4231 29.4231 -180 0 0 29.42
						 962.35 Z" class="st8"/>
			<text x="119.15" y="932.32" class="st9" v:langID="2055"><v:paragraph v:horizAlign="1"/><v:tabList/>Service</text>		</g>
		<g id="shape1017-78" v:mID="1017" v:groupContext="shape" transform="translate(664.999,-191.73)">
			<title>Round Corner Rectangle.1017</title>
			<desc>Repository</desc>
			<v:userDefs>
				<v:ud v:nameU="CTypeTopLeftSnip" v:prompt="" v:val="VT0(0):5"/>
				<v:ud v:nameU="CTypeTopRightSnip" v:prompt="" v:val="VT0(0):5"/>
				<v:ud v:nameU="CTypeBotLeftSnip" v:prompt="" v:val="VT0(0):5"/>
				<v:ud v:nameU="CTypeBotRightSnip" v:prompt="" v:val="VT0(0):5"/>
				<v:ud v:nameU="CornerLockHoriz" v:prompt="" v:val="VT0(0):5"/>
				<v:ud v:nameU="CornerLockVert" v:prompt="" v:val="VT0(0):5"/>
				<v:ud v:nameU="CornerLockDiag" v:prompt="" v:val="VT0(0):5"/>
				<v:ud v:nameU="TopLeftOffset" v:prompt="" v:val="VT0(0.15748031496063):24"/>
				<v:ud v:nameU="TopRightOffset" v:prompt="" v:val="VT0(0.15748031496063):24"/>
				<v:ud v:nameU="BotLeftOffset" v:prompt="" v:val="VT0(0.15748031496063):24"/>
				<v:ud v:nameU="BotRightOffset" v:prompt="" v:val="VT0(0.15748031496063):24"/>
				<v:ud v:nameU="visVersion" v:prompt="" v:val="VT0(15):26"/>
				<v:ud v:nameU="TopLeftOffset" v:prompt="" v:val="VT0(0.40866140428069):1"/>
				<v:ud v:nameU="TopRightOffset" v:prompt="" v:val="VT0(0.40866140428069):1"/>
				<v:ud v:nameU="BotLeftOffset" v:prompt="" v:val="VT0(0.40866140428069):1"/>
				<v:ud v:nameU="BotRightOffset" v:prompt="" v:val="VT0(0.40866140428069):1"/>
			</v:userDefs>
			<v:textBlock v:margins="rect(4,4,4,4)" v:tabSpace="42.5197"/>
			<v:textRect cx="147.118" cy="926.918" width="294.24" height="70.8661"/>
			<path d="M29.42 962.35 L264.81 962.35 A29.4231 29.4231 -180 0 0 294.24 932.93 L294.24 920.91 A29.4231 29.4231 -180 0
						 0 264.81 891.49 L29.42 891.49 A29.4231 29.4231 -180 0 0 0 920.91 L0 932.93 A29.4231 29.4231 -180 0 0 29.42
						 962.35 Z" class="st8"/>
			<text x="104.66" y="932.32" class="st9" v:langID="2055"><v:paragraph v:horizAlign="1"/><v:tabList/>Repository</text>		</g>
		<g id="shape1018-81" v:mID="1018" v:groupContext="shape" transform="translate(-127.294,704.583) rotate(-89.9626)">
			<title>Sheet.1018</title>
			<path d="M0 962.35 L14.55 962.35" class="st10"/>
		</g>
		<g id="shape1019-86" v:mID="1019" v:groupContext="shape" transform="translate(1753.49,674.752) rotate(90)">
			<title>Sheet.1019</title>
			<path d="M0 962.35 L14.25 962.35" class="st10"/>
		</g>
		<g id="shape1020-91" v:mID="1020" v:groupContext="shape" transform="translate(-127.294,612.598) rotate(-89.9626)">
			<title>Sheet.1020</title>
			<path d="M0 962.35 L14.55 962.35" class="st10"/>
		</g>
		<g id="shape1021-96" v:mID="1021" v:groupContext="shape" transform="translate(1753.49,582.767) rotate(90)">
			<title>Sheet.1021</title>
			<path d="M0 962.35 L14.25 962.35" class="st10"/>
		</g>
		<g id="shape1022-101" v:mID="1022" v:groupContext="shape" transform="translate(515.451,-589.573)">
			<title>Round Corner Rectangle.1022</title>
			<desc>Pet Service</desc>
			<v:userDefs>
				<v:ud v:nameU="CTypeTopLeftSnip" v:prompt="" v:val="VT0(0):5"/>
				<v:ud v:nameU="CTypeTopRightSnip" v:prompt="" v:val="VT0(0):5"/>
				<v:ud v:nameU="CTypeBotLeftSnip" v:prompt="" v:val="VT0(0):5"/>
				<v:ud v:nameU="CTypeBotRightSnip" v:prompt="" v:val="VT0(0):5"/>
				<v:ud v:nameU="CornerLockHoriz" v:prompt="" v:val="VT0(0):5"/>
				<v:ud v:nameU="CornerLockVert" v:prompt="" v:val="VT0(0):5"/>
				<v:ud v:nameU="CornerLockDiag" v:prompt="" v:val="VT0(0):5"/>
				<v:ud v:nameU="TopLeftOffset" v:prompt="" v:val="VT0(0.15748031496063):24"/>
				<v:ud v:nameU="TopRightOffset" v:prompt="" v:val="VT0(0.15748031496063):24"/>
				<v:ud v:nameU="BotLeftOffset" v:prompt="" v:val="VT0(0.15748031496063):24"/>
				<v:ud v:nameU="BotRightOffset" v:prompt="" v:val="VT0(0.15748031496063):24"/>
				<v:ud v:nameU="visVersion" v:prompt="" v:val="VT0(15):26"/>
				<v:ud v:nameU="TopLeftOffset" v:prompt="" v:val="VT0(0.18329509218678):1"/>
				<v:ud v:nameU="TopRightOffset" v:prompt="" v:val="VT0(0.18329509218678):1"/>
				<v:ud v:nameU="BotLeftOffset" v:prompt="" v:val="VT0(0.18329509218678):1"/>
				<v:ud v:nameU="BotRightOffset" v:prompt="" v:val="VT0(0.18329509218678):1"/>
			</v:userDefs>
			<v:textBlock v:margins="rect(4,4,4,4)" v:tabSpace="42.5197"/>
			<v:textRect cx="65.9862" cy="926.918" width="131.98" height="70.8661"/>
			<path d="M13.2 962.35 L118.78 962.35 A13.197 13.197 -180 0 0 131.97 949.15 L131.97 904.68 A13.197 13.197 -180 0 0 118.78
						 891.49 L13.2 891.49 A13.197 13.197 -180 0 0 -0 904.68 L0 949.15 A13.197 13.197 -180 0 0 13.2 962.35 Z"
					class="st8"/>
			<text x="22.75" y="932.32" class="st9" v:langID="2055"><v:paragraph v:horizAlign="1"/><v:tabList/>Pet Service</text>		</g>
		<g id="shape1023-104" v:mID="1023" v:groupContext="shape" transform="translate(-359.945,307.39) rotate(-89.9626)">
			<title>Sheet.1023</title>
			<path d="M0 962.35 L14.55 962.35" class="st10"/>
		</g>
		<g id="shape1024-109" v:mID="1024" v:groupContext="shape" transform="translate(1520.84,276.909) rotate(90)">
			<title>Sheet.1024</title>
			<path d="M0 962.35 L14.25 962.35" class="st10"/>
		</g>
		<g id="shape1003-114" v:mID="1003" v:groupContext="shape" transform="translate(-129.677,832.205) rotate(-89.9828)">
			<title>Sheet.1003</title>
			<path d="M0 962.35 L51.26 962.35" class="st10"/>
		</g>
		<g id="shape1004-119" v:mID="1004" v:groupContext="shape" transform="translate(1751.11,766.086) rotate(90)">
			<title>Sheet.1004</title>
			<path d="M0 962.35 L50.62 962.35" class="st10"/>
		</g>
		<g id="group1025-124" transform="translate(76.2307,-21.6516)" v:mID="1025" v:groupContext="group">
			<title>Sheet.1025</title>
			<g id="shape1026-125" v:mID="1026" v:groupContext="shape" v:layerMember="0" transform="translate(67.4525,1.13687E-13)">
				<title>Database.4</title>
				<v:custProps>
					<v:cp v:nameU="Cost" v:lbl="Cost" v:type="7" v:format="@" v:langID="1033"/>
					<v:cp v:nameU="Duration" v:lbl="Duration" v:type="2" v:langID="1033"/>
					<v:cp v:nameU="Resources" v:lbl="Resources" v:langID="1033"/>
				</v:custProps>
				<v:userDefs>
					<v:ud v:nameU="visVersion" v:val="VT0(15):26"/>
				</v:userDefs>
				<path d="M0 866.83 L0 941.09 A106.305 21.261 -180 1 0 212.61 941.09 L212.61 866.83 A106.305 21.261 -180 0 0 -0 866.83
							 Z" class="st2"/>
				<path d="M0 866.83 L0 941.09 A106.305 21.261 -180 1 0 212.61 941.09 L212.61 866.83 A106.305 21.261 -180 0 0 -0 866.83"
						class="st3"/>
				<path d="M0 866.83 A106.305 21.261 -180 0 0 212.61 866.83" class="st3"/>
				<path d="M0 877.46 A106.305 21.261 -180 0 0 212.61 877.46" class="st3"/>
				<path d="M0 888.09 A106.305 21.261 -180 1 0 212.61 888.09" class="st3"/>
			</g>
			<g id="shape1027-131" v:mID="1027" v:groupContext="shape" transform="translate(72.8488,-91.4512)">
				<title>Sheet.1027</title>
				<desc>H2 Database</desc>
				<v:textBlock v:margins="rect(2,2,2,2)" v:tabSpace="42.5197"/>
				<v:textRect cx="103.607" cy="958.471" width="207.22" height="7.76138"/>
				<rect x="0" y="954.59" width="207.214" height="7.76138" class="st4"/>
				<text x="32.1" y="965.67" class="st5" v:langID="2055"><v:paragraph v:horizAlign="1"/><v:tabList/>H2 Database</text>			</g>
			<g id="shape1028-134" v:mID="1028" v:groupContext="shape" transform="translate(141.732,-14.1732)">
				<title>Rectangle.29</title>
				<desc>User</desc>
				<v:userDefs>
					<v:ud v:nameU="visVersion" v:val="VT0(15):26"/>
				</v:userDefs>
				<v:textBlock v:margins="rect(4,4,4,4)" v:tabSpace="42.5197"/>
				<v:textRect cx="38.8527" cy="948.601" width="77.71" height="27.501"/>
				<rect x="0" y="934.851" width="77.7053" height="27.501" class="st6"/>
				<text x="21.02" y="954" class="st7" v:langID="2055"><v:paragraph v:horizAlign="1"/><v:tabList/>User</text>			</g>
		</g>
		<g id="shape1029-137" v:mID="1029" v:groupContext="shape" transform="translate(18.2493,-173.872)">
			<title>Round Corner Rectangle.1029</title>
			<v:userDefs>
				<v:ud v:nameU="CTypeTopLeftSnip" v:prompt="" v:val="VT0(0):5"/>
				<v:ud v:nameU="CTypeTopRightSnip" v:prompt="" v:val="VT0(0):5"/>
				<v:ud v:nameU="CTypeBotLeftSnip" v:prompt="" v:val="VT0(0):5"/>
				<v:ud v:nameU="CTypeBotRightSnip" v:prompt="" v:val="VT0(0):5"/>
				<v:ud v:nameU="CornerLockHoriz" v:prompt="" v:val="VT0(0):5"/>
				<v:ud v:nameU="CornerLockVert" v:prompt="" v:val="VT0(0):5"/>
				<v:ud v:nameU="CornerLockDiag" v:prompt="" v:val="VT0(0):5"/>
				<v:ud v:nameU="TopLeftOffset" v:prompt="" v:val="VT0(0.15748031496063):24"/>
				<v:ud v:nameU="TopRightOffset" v:prompt="" v:val="VT0(0.15748031496063):24"/>
				<v:ud v:nameU="BotLeftOffset" v:prompt="" v:val="VT0(0.15748031496063):24"/>
				<v:ud v:nameU="BotRightOffset" v:prompt="" v:val="VT0(0.15748031496063):24"/>
				<v:ud v:nameU="visVersion" v:prompt="" v:val="VT0(15):26"/>
				<v:ud v:nameU="TopLeftOffset" v:prompt="" v:val="VT0(0.59010280923409):1"/>
				<v:ud v:nameU="TopRightOffset" v:prompt="" v:val="VT0(0.59010280923409):1"/>
				<v:ud v:nameU="BotLeftOffset" v:prompt="" v:val="VT0(0.59010280923409):1"/>
				<v:ud v:nameU="BotRightOffset" v:prompt="" v:val="VT0(0.59010280923409):1"/>
			</v:userDefs>
			<path d="M42.49 962.35 L382.39 962.35 A42.4867 42.4867 -180 0 0 424.87 919.86 L424.87 707.2 A42.4867 42.4867 -180 0 0
						 382.39 664.71 L42.49 664.71 A42.4867 42.4867 -180 0 0 0 707.2 L0 919.86 A42.4867 42.4867 -180 0 0 42.49
						 962.35 Z" class="st13"/>
		</g>
		<g id="shape1030-139" v:mID="1030" v:groupContext="shape" transform="translate(-884.575,788.479) rotate(-90)">
			<title>Sheet.1030</title>
			<desc>User</desc>
			<v:textBlock v:margins="rect(2,2,2,2)" v:tabSpace="42.5197"/>
			<v:textRect cx="148.819" cy="947.426" width="297.64" height="29.8504"/>
			<rect x="0" y="932.501" width="297.638" height="29.8504" class="st4"/>
			<text x="123.59" y="954.63" class="st5" v:langID="2055"><v:paragraph v:horizAlign="1"/><v:tabList/>User</text>		</g>
		<g id="shape1031-142" v:mID="1031" v:groupContext="shape" transform="translate(98.7138,-379.384)">
			<title>Round Corner Rectangle.1031</title>
			<desc>Rest Controller</desc>
			<v:userDefs>
				<v:ud v:nameU="CTypeTopLeftSnip" v:prompt="" v:val="VT0(0):5"/>
				<v:ud v:nameU="CTypeTopRightSnip" v:prompt="" v:val="VT0(0):5"/>
				<v:ud v:nameU="CTypeBotLeftSnip" v:prompt="" v:val="VT0(0):5"/>
				<v:ud v:nameU="CTypeBotRightSnip" v:prompt="" v:val="VT0(0):5"/>
				<v:ud v:nameU="CornerLockHoriz" v:prompt="" v:val="VT0(0):5"/>
				<v:ud v:nameU="CornerLockVert" v:prompt="" v:val="VT0(0):5"/>
				<v:ud v:nameU="CornerLockDiag" v:prompt="" v:val="VT0(0):5"/>
				<v:ud v:nameU="TopLeftOffset" v:prompt="" v:val="VT0(0.15748031496063):24"/>
				<v:ud v:nameU="TopRightOffset" v:prompt="" v:val="VT0(0.15748031496063):24"/>
				<v:ud v:nameU="BotLeftOffset" v:prompt="" v:val="VT0(0.15748031496063):24"/>
				<v:ud v:nameU="BotRightOffset" v:prompt="" v:val="VT0(0.15748031496063):24"/>
				<v:ud v:nameU="visVersion" v:prompt="" v:val="VT0(15):26"/>
				<v:ud v:nameU="TopLeftOffset" v:prompt="" v:val="VT0(0.40866140428069):1"/>
				<v:ud v:nameU="TopRightOffset" v:prompt="" v:val="VT0(0.40866140428069):1"/>
				<v:ud v:nameU="BotLeftOffset" v:prompt="" v:val="VT0(0.40866140428069):1"/>
				<v:ud v:nameU="BotRightOffset" v:prompt="" v:val="VT0(0.40866140428069):1"/>
			</v:userDefs>
			<v:textBlock v:margins="rect(4,4,4,4)" v:tabSpace="42.5197"/>
			<v:textRect cx="147.118" cy="926.918" width="294.24" height="70.8661"/>
			<path d="M29.42 962.35 L264.81 962.35 A29.4231 29.4231 -180 0 0 294.24 932.93 L294.24 920.91 A29.4231 29.4231 -180 0
						 0 264.81 891.49 L29.42 891.49 A29.4231 29.4231 -180 0 0 0 920.91 L0 932.93 A29.4231 29.4231 -180 0 0 29.42
						 962.35 Z" class="st8"/>
			<text x="88.11" y="932.32" class="st9" v:langID="2055"><v:paragraph v:horizAlign="1"/><v:tabList/>Rest Controller</text>		</g>
		<g id="shape1032-145" v:mID="1032" v:groupContext="shape" transform="translate(98.7138,-287.258)">
			<title>Round Corner Rectangle.1032</title>
			<desc>Service</desc>
			<v:userDefs>
				<v:ud v:nameU="CTypeTopLeftSnip" v:prompt="" v:val="VT0(0):5"/>
				<v:ud v:nameU="CTypeTopRightSnip" v:prompt="" v:val="VT0(0):5"/>
				<v:ud v:nameU="CTypeBotLeftSnip" v:prompt="" v:val="VT0(0):5"/>
				<v:ud v:nameU="CTypeBotRightSnip" v:prompt="" v:val="VT0(0):5"/>
				<v:ud v:nameU="CornerLockHoriz" v:prompt="" v:val="VT0(0):5"/>
				<v:ud v:nameU="CornerLockVert" v:prompt="" v:val="VT0(0):5"/>
				<v:ud v:nameU="CornerLockDiag" v:prompt="" v:val="VT0(0):5"/>
				<v:ud v:nameU="TopLeftOffset" v:prompt="" v:val="VT0(0.15748031496063):24"/>
				<v:ud v:nameU="TopRightOffset" v:prompt="" v:val="VT0(0.15748031496063):24"/>
				<v:ud v:nameU="BotLeftOffset" v:prompt="" v:val="VT0(0.15748031496063):24"/>
				<v:ud v:nameU="BotRightOffset" v:prompt="" v:val="VT0(0.15748031496063):24"/>
				<v:ud v:nameU="visVersion" v:prompt="" v:val="VT0(15):26"/>
				<v:ud v:nameU="TopLeftOffset" v:prompt="" v:val="VT0(0.40866140428069):1"/>
				<v:ud v:nameU="TopRightOffset" v:prompt="" v:val="VT0(0.40866140428069):1"/>
				<v:ud v:nameU="BotLeftOffset" v:prompt="" v:val="VT0(0.40866140428069):1"/>
				<v:ud v:nameU="BotRightOffset" v:prompt="" v:val="VT0(0.40866140428069):1"/>
			</v:userDefs>
			<v:textBlock v:margins="rect(4,4,4,4)" v:tabSpace="42.5197"/>
			<v:textRect cx="147.118" cy="926.918" width="294.24" height="70.8661"/>
			<path d="M29.42 962.35 L264.81 962.35 A29.4231 29.4231 -180 0 0 294.24 932.93 L294.24 920.91 A29.4231 29.4231 -180 0
						 0 264.81 891.49 L29.42 891.49 A29.4231 29.4231 -180 0 0 0 920.91 L0 932.93 A29.4231 29.4231 -180 0 0 29.42
						 962.35 Z" class="st8"/>
			<text x="119.15" y="932.32" class="st9" v:langID="2055"><v:paragraph v:horizAlign="1"/><v:tabList/>Service</text>		</g>
		<g id="shape1033-148" v:mID="1033" v:groupContext="shape" transform="translate(98.7138,-195.132)">
			<title>Round Corner Rectangle.1033</title>
			<desc>Repository</desc>
			<v:userDefs>
				<v:ud v:nameU="CTypeTopLeftSnip" v:prompt="" v:val="VT0(0):5"/>
				<v:ud v:nameU="CTypeTopRightSnip" v:prompt="" v:val="VT0(0):5"/>
				<v:ud v:nameU="CTypeBotLeftSnip" v:prompt="" v:val="VT0(0):5"/>
				<v:ud v:nameU="CTypeBotRightSnip" v:prompt="" v:val="VT0(0):5"/>
				<v:ud v:nameU="CornerLockHoriz" v:prompt="" v:val="VT0(0):5"/>
				<v:ud v:nameU="CornerLockVert" v:prompt="" v:val="VT0(0):5"/>
				<v:ud v:nameU="CornerLockDiag" v:prompt="" v:val="VT0(0):5"/>
				<v:ud v:nameU="TopLeftOffset" v:prompt="" v:val="VT0(0.15748031496063):24"/>
				<v:ud v:nameU="TopRightOffset" v:prompt="" v:val="VT0(0.15748031496063):24"/>
				<v:ud v:nameU="BotLeftOffset" v:prompt="" v:val="VT0(0.15748031496063):24"/>
				<v:ud v:nameU="BotRightOffset" v:prompt="" v:val="VT0(0.15748031496063):24"/>
				<v:ud v:nameU="visVersion" v:prompt="" v:val="VT0(15):26"/>
				<v:ud v:nameU="TopLeftOffset" v:prompt="" v:val="VT0(0.40866140428069):1"/>
				<v:ud v:nameU="TopRightOffset" v:prompt="" v:val="VT0(0.40866140428069):1"/>
				<v:ud v:nameU="BotLeftOffset" v:prompt="" v:val="VT0(0.40866140428069):1"/>
				<v:ud v:nameU="BotRightOffset" v:prompt="" v:val="VT0(0.40866140428069):1"/>
			</v:userDefs>
			<v:textBlock v:margins="rect(4,4,4,4)" v:tabSpace="42.5197"/>
			<v:textRect cx="147.118" cy="926.918" width="294.24" height="70.8661"/>
			<path d="M29.42 962.35 L264.81 962.35 A29.4231 29.4231 -180 0 0 294.24 932.93 L294.24 920.91 A29.4231 29.4231 -180 0
						 0 264.81 891.49 L29.42 891.49 A29.4231 29.4231 -180 0 0 0 920.91 L0 932.93 A29.4231 29.4231 -180 0 0 29.42
						 962.35 Z" class="st8"/>
			<text x="104.66" y="932.32" class="st9" v:langID="2055"><v:paragraph v:horizAlign="1"/><v:tabList/>Repository</text>		</g>
		<g id="shape1034-151" v:mID="1034" v:groupContext="shape" transform="translate(-693.579,701.181) rotate(-89.9626)">
			<title>Sheet.1034</title>
			<path d="M0 962.35 L14.55 962.35" class="st10"/>
		</g>
		<g id="shape1035-156" v:mID="1035" v:groupContext="shape" transform="translate(1187.21,671.35) rotate(90)">
			<title>Sheet.1035</title>
			<path d="M0 962.35 L14.25 962.35" class="st10"/>
		</g>
		<g id="shape1036-161" v:mID="1036" v:groupContext="shape" transform="translate(-693.579,609.197) rotate(-89.9626)">
			<title>Sheet.1036</title>
			<path d="M0 962.35 L14.55 962.35" class="st10"/>
		</g>
		<g id="shape1037-166" v:mID="1037" v:groupContext="shape" transform="translate(1187.21,579.366) rotate(90)">
			<title>Sheet.1037</title>
			<path d="M0 962.35 L14.25 962.35" class="st10"/>
		</g>
		<g id="shape1038-171" v:mID="1038" v:groupContext="shape" transform="translate(-695.962,828.803) rotate(-89.9828)">
			<title>Sheet.1038</title>
			<path d="M0 962.35 L51.26 962.35" class="st10"/>
		</g>
		<g id="shape1039-176" v:mID="1039" v:groupContext="shape" transform="translate(1184.82,762.684) rotate(90)">
			<title>Sheet.1039</title>
			<path d="M0 962.35 L50.62 962.35" class="st10"/>
		</g>
		<g id="shape1040-181" v:mID="1040" v:groupContext="shape" transform="translate(-345.275,-242.031) rotate(-38.4053)">
			<title>Sheet.1040</title>
			<path d="M0 962.35 L207.71 962.35" class="st10"/>
		</g>
		<g id="shape1041-186" v:mID="1041" v:groupContext="shape" transform="translate(980.389,1140.39) rotate(142.905)">
			<title>Sheet.1041</title>
			<path d="M0 962.35 L214.44 962.35" class="st10"/>
		</g>
		<g id="shape1042-191" v:mID="1042" v:groupContext="shape" transform="translate(315.917,1328.52) rotate(-147.653)">
			<title>Sheet.1042</title>
			<path d="M0 962.35 L250.19 962.35" class="st10"/>
		</g>
		<g id="shape1043-196" v:mID="1043" v:groupContext="shape" transform="translate(1071.58,-445.935) rotate(31.7074)">
			<title>Sheet.1043</title>
			<path d="M0 962.35 L255 962.35" class="st10"/>
		</g>
		<g id="shape1044-201" v:mID="1044" v:groupContext="shape" transform="translate(205.361,-522.203)">
			<title>Sheet.1044</title>
			<desc>HTTP request</desc>
			<v:textBlock v:margins="rect(2,2,2,2)" v:tabSpace="42.5197"/>
			<v:textRect cx="50" cy="956.351" width="100" height="12"/>
			<rect x="0" y="950.351" width="100" height="12" class="st4"/>
			<text x="29.14" y="950.95" class="st7" v:langID="2055"><v:paragraph v:horizAlign="1"/><v:tabList/>HTTP <tspan x="20.2"
						dy="1.2em" class="st12">request</tspan></text>		</g>
		<g id="shape1045-205" v:mID="1045" v:groupContext="shape" transform="translate(584.534,-499.856)">
			<title>Sheet.1045</title>
			<desc>HTTP request</desc>
			<v:textBlock v:margins="rect(2,2,2,2)" v:tabSpace="42.5197"/>
			<v:textRect cx="50" cy="956.351" width="100" height="12"/>
			<rect x="0" y="950.351" width="100" height="12" class="st4"/>
			<text x="29.14" y="950.95" class="st7" v:langID="2055"><v:paragraph v:horizAlign="1"/><v:tabList/>HTTP <tspan x="20.2"
						dy="1.2em" class="st12">request</tspan></text>		</g>
		<g id="shape1046-209" v:mID="1046" v:groupContext="shape" transform="translate(704.29,-530.376)">
			<title>Sheet.1046</title>
			<desc>HTTP response</desc>
			<v:textBlock v:margins="rect(2,2,2,2)" v:tabSpace="42.5197"/>
			<v:textRect cx="50" cy="956.351" width="100" height="12"/>
			<rect x="0" y="950.351" width="100" height="12" class="st4"/>
			<text x="29.14" y="950.95" class="st7" v:langID="2055"><v:paragraph v:horizAlign="1"/><v:tabList/>HTTP <tspan x="14.16"
						dy="1.2em" class="st12">response</tspan></text>		</g>
		<g id="shape1047-213" v:mID="1047" v:groupContext="shape" transform="translate(329.093,-502.03)">
			<title>Sheet.1047</title>
			<desc>HTTP response</desc>
			<v:textBlock v:margins="rect(2,2,2,2)" v:tabSpace="42.5197"/>
			<v:textRect cx="50" cy="956.351" width="100" height="12"/>
			<rect x="0" y="950.351" width="100" height="12" class="st4"/>
			<text x="29.14" y="950.95" class="st7" v:langID="2055"><v:paragraph v:horizAlign="1"/><v:tabList/>HTTP <tspan x="14.16"
						dy="1.2em" class="st12">response</tspan></text>		</g>
	</g>
</svg>
